<svg width="81" height="81" viewBox="0 0 81 81" fill="none" xmlns="http://www.w3.org/2000/svg">
<path d="M51.2005 42.8004C52.1907 42.8004 53.1403 43.1937 53.8404 43.8939C54.5405 44.594 54.9339 45.5436 54.9339 46.5337C54.9339 47.5239 54.5405 48.4735 53.8404 49.1736C53.1403 49.8737 52.1907 50.2671 51.2005 50.2671C52.0827 50.2689 52.9357 50.583 53.6083 51.1538C54.2809 51.7245 54.7297 52.515 54.8751 53.3851C55.0205 54.2552 54.8531 55.1486 54.4026 55.9071C53.952 56.6655 53.2475 57.2399 52.4139 57.5284C52.7875 57.7378 53.1299 57.9986 53.4312 58.3031C54.1494 59.021 54.6386 59.9358 54.8368 60.9318C55.035 61.9278 54.9334 62.9602 54.5447 63.8984C54.156 64.8366 53.4978 65.6384 52.6533 66.2025C51.8089 66.7665 50.8161 67.0674 49.8005 67.0671H32.0672C30.7057 67.0671 29.4001 66.5262 28.4374 65.5635C27.4747 64.6009 26.9339 63.2952 26.9339 61.9337C26.9302 61.0428 27.1612 60.1667 27.6036 59.3934C28.0459 58.6201 28.6841 57.9769 29.4539 57.5284C28.6202 57.2399 27.9157 56.6655 27.4652 55.9071C27.0146 55.1486 26.8472 54.2552 26.9926 53.3851C27.138 52.515 27.5868 51.7245 28.2594 51.1538C28.932 50.583 29.785 50.2689 30.6672 50.2671C29.677 50.2671 28.7275 49.8737 28.0273 49.1736C27.3272 48.4735 26.9339 47.5239 26.9339 46.5337C26.9339 45.5436 27.3272 44.594 28.0273 43.8939C28.7275 43.1937 29.677 42.8004 30.6672 42.8004C29.8134 42.8014 28.9852 42.5094 28.3209 41.9732C27.6565 41.437 27.1963 40.689 27.0171 39.8543C26.8379 39.0196 26.9506 38.1486 27.3364 37.387C27.7221 36.6254 28.3576 36.0192 29.1365 35.6697L28.5205 35.0537C27.9133 34.4455 27.4592 33.7018 27.1955 32.8839C26.9318 32.0659 26.866 31.1971 27.0036 30.3487C27.1412 29.5004 27.4782 28.6969 27.987 28.0042C28.4957 27.3115 29.1616 26.7495 29.9299 26.3644L35.2312 23.7137C35.5078 23.5763 35.7457 23.372 35.9233 23.1194C36.101 22.8668 36.2127 22.5738 36.2485 22.2671C36.264 22.1935 36.2703 22.1182 36.2672 22.0431V20.4004H45.6005V22.0431C45.5975 22.1182 45.6037 22.1935 45.6192 22.2671C45.655 22.5738 45.7668 22.8668 45.9444 23.1194C46.1221 23.372 46.36 23.5763 46.6365 23.7137L51.9379 26.3644C52.7062 26.7495 53.372 27.3115 53.8808 28.0042C54.3895 28.6969 54.7265 29.5004 54.8641 30.3487C55.0017 31.1971 54.9359 32.0659 54.6722 32.8839C54.4085 33.7018 53.9544 34.4455 53.3472 35.0537L52.7312 35.6697C53.5101 36.0192 54.1456 36.6254 54.5313 37.387C54.9171 38.1486 55.0298 39.0196 54.8506 39.8543C54.6714 40.689 54.2112 41.437 53.5469 41.9732C52.8825 42.5094 52.0543 42.8014 51.2005 42.8004Z" fill="#BDDBFF"/>
<path d="M45.5997 12.9336H36.2663C35.7509 12.9336 35.333 13.3515 35.333 13.8669V19.4669C35.333 19.9824 35.7509 20.4003 36.2663 20.4003H45.5997C46.1151 20.4003 46.533 19.9824 46.533 19.4669V13.8669C46.533 13.3515 46.1151 12.9336 45.5997 12.9336Z" fill="#3D9AE2"/>
<path d="M45.6187 22.2671H36.248C36.2635 22.1935 36.2698 22.1182 36.2667 22.0431V20.4004H45.6V22.0431C45.597 22.1182 45.6032 22.1935 45.6187 22.2671Z" fill="#96C8EF"/>
<path d="M55.8668 39.0667C55.8636 38.3872 55.7115 37.7167 55.4212 37.1023C55.131 36.4879 54.7096 35.9446 54.1868 35.5107C55.2615 34.3384 55.8605 32.8076 55.8668 31.2173C55.8706 30.0368 55.544 28.8787 54.9238 27.8742C54.3036 26.8697 53.4146 26.0588 52.3574 25.5333L47.0561 22.8827C46.899 22.8057 46.7667 22.6861 46.6743 22.5376C46.5819 22.3891 46.5331 22.2176 46.5334 22.0427V21.072C46.8155 20.9091 47.0501 20.6753 47.2139 20.3936C47.3776 20.112 47.4648 19.7924 47.4668 19.4667V13.8667C47.4653 13.3721 47.2681 12.8981 46.9184 12.5484C46.5686 12.1986 46.0947 12.0015 45.6001 12H36.2668C35.7721 12.0015 35.2982 12.1986 34.9485 12.5484C34.5987 12.8981 34.4016 13.3721 34.4001 13.8667V19.4667C34.4021 19.7924 34.4892 20.112 34.653 20.3936C34.8167 20.6753 35.0513 20.9091 35.3334 21.072V22.0427C35.3338 22.2176 35.285 22.3891 35.1925 22.5376C35.1001 22.6861 34.9678 22.8057 34.8108 22.8827L29.5094 25.5333C28.4523 26.0588 27.5633 26.8697 26.9431 27.8742C26.3229 28.8787 25.9962 30.0368 26.0001 31.2173C26.0064 32.8076 26.6054 34.3384 27.6801 35.5107C27.1391 35.9584 26.7069 36.5232 26.4161 37.1625C26.1253 37.8017 25.9835 38.4987 26.0015 39.2007C26.0195 39.9027 26.1967 40.5915 26.5199 41.215C26.843 41.8386 27.3035 42.3805 27.8668 42.8C27.2872 43.2347 26.8168 43.7983 26.4928 44.4463C26.1688 45.0943 26.0001 45.8089 26.0001 46.5333C26.0001 47.2578 26.1688 47.9723 26.4928 48.6203C26.8168 49.2683 27.2872 49.832 27.8668 50.2667C27.2947 50.693 26.8287 51.2456 26.505 51.8814C26.1813 52.5172 26.0087 53.2191 26.0006 53.9326C25.9924 54.646 26.149 55.3517 26.4581 55.9947C26.7672 56.6377 27.2205 57.2008 27.7828 57.64C26.9334 58.4879 26.3547 59.5687 26.1197 60.7455C25.8848 61.9224 26.0041 63.1426 26.4627 64.2516C26.9213 65.3606 27.6986 66.3087 28.6961 66.976C29.6936 67.6432 30.8666 67.9996 32.0668 68H49.8001C51 67.9992 52.1728 67.6428 53.1703 66.9759C54.1678 66.309 54.9453 65.3615 55.4047 64.253C55.8641 63.1445 55.9847 61.9248 55.7513 60.7478C55.5179 59.5708 54.941 58.4893 54.0934 57.64C54.6538 57.1992 55.1052 56.6353 55.4126 55.992C55.72 55.3487 55.8752 54.6432 55.8662 53.9303C55.8572 53.2174 55.6841 52.5161 55.3605 51.8808C55.0369 51.2455 54.5714 50.6932 54.0001 50.2667C54.5797 49.832 55.0501 49.2683 55.3741 48.6203C55.6981 47.9723 55.8668 47.2578 55.8668 46.5333C55.8668 45.8089 55.6981 45.0943 55.3741 44.4463C55.0501 43.7983 54.5797 43.2347 54.0001 42.8C54.5791 42.3648 55.0492 41.801 55.3731 41.1532C55.697 40.5053 55.866 39.791 55.8668 39.0667ZM36.2668 13.8667H45.6001V19.4667H36.2668V13.8667ZM51.2001 36.2667C51.9427 36.2667 52.6549 36.5617 53.18 37.0868C53.7051 37.6119 54.0001 38.3241 54.0001 39.0667C54.0001 39.8093 53.7051 40.5215 53.18 41.0466C52.6549 41.5717 51.9427 41.8667 51.2001 41.8667C50.9526 41.8667 50.7152 41.965 50.5401 42.14C50.3651 42.3151 50.2668 42.5525 50.2668 42.8C50.2668 43.0475 50.3651 43.2849 50.5401 43.46C50.7152 43.635 50.9526 43.7333 51.2001 43.7333C51.9427 43.7333 52.6549 44.0283 53.18 44.5534C53.7051 45.0785 54.0001 45.7907 54.0001 46.5333C54.0001 47.2759 53.7051 47.9881 53.18 48.5132C52.6549 49.0383 51.9427 49.3333 51.2001 49.3333C50.9526 49.3333 50.7152 49.4317 50.5401 49.6067C50.3651 49.7817 50.2668 50.0191 50.2668 50.2667C50.2668 50.5142 50.3651 50.7516 50.5401 50.9266C50.7152 51.1017 50.9526 51.2 51.2001 51.2C51.9427 51.2 52.6549 51.495 53.18 52.0201C53.7051 52.5452 54.0001 53.2574 54.0001 54C54.0001 54.7426 53.7051 55.4548 53.18 55.9799C52.6549 56.505 51.9427 56.8 51.2001 56.8C50.9526 56.8 50.7152 56.8983 50.5401 57.0734C50.3651 57.2484 50.2668 57.4858 50.2668 57.7333C50.2668 57.9809 50.3651 58.2183 50.5401 58.3933C50.7152 58.5683 50.9526 58.6667 51.2001 58.6667C51.5553 58.6611 51.9089 58.6173 52.2548 58.536C52.4407 58.6604 52.6128 58.8043 52.7681 58.9653C53.3547 59.5527 53.7541 60.3007 53.9159 61.115C54.0776 61.9292 53.9945 62.7731 53.6769 63.5401C53.3593 64.3071 52.8216 64.9628 52.1316 65.4243C51.4415 65.8859 50.6302 66.1326 49.8001 66.1333H32.0668C31.1784 66.1356 30.3123 65.8553 29.5936 65.3331C28.875 64.8108 28.341 64.0736 28.0688 63.2279C27.7966 62.3823 27.8003 61.472 28.0794 60.6286C28.3585 59.7852 28.8985 59.0524 29.6214 58.536C29.9632 58.6225 30.3143 58.6664 30.6668 58.6667C30.9143 58.6667 31.1517 58.5683 31.3267 58.3933C31.5018 58.2183 31.6001 57.9809 31.6001 57.7333C31.6001 57.4858 31.5018 57.2484 31.3267 57.0734C31.1517 56.8983 30.9143 56.8 30.6668 56.8C29.9242 56.8 29.212 56.505 28.6869 55.9799C28.1618 55.4548 27.8668 54.7426 27.8668 54C27.8668 53.2574 28.1618 52.5452 28.6869 52.0201C29.212 51.495 29.9242 51.2 30.6668 51.2C30.9143 51.2 31.1517 51.1017 31.3267 50.9266C31.5018 50.7516 31.6001 50.5142 31.6001 50.2667C31.6001 50.0191 31.5018 49.7817 31.3267 49.6067C31.1517 49.4317 30.9143 49.3333 30.6668 49.3333C29.9242 49.3333 29.212 49.0383 28.6869 48.5132C28.1618 47.9881 27.8668 47.2759 27.8668 46.5333C27.8668 45.7907 28.1618 45.0785 28.6869 44.5534C29.212 44.0283 29.9242 43.7333 30.6668 43.7333C30.9143 43.7333 31.1517 43.635 31.3267 43.46C31.5018 43.2849 31.6001 43.0475 31.6001 42.8C31.6001 42.5525 31.5018 42.3151 31.3267 42.14C31.1517 41.965 30.9143 41.8667 30.6668 41.8667C29.9242 41.8667 29.212 41.5717 28.6869 41.0466C28.1618 40.5215 27.8668 39.8093 27.8668 39.0667C27.8668 38.3241 28.1618 37.6119 28.6869 37.0868C29.212 36.5617 29.9242 36.2667 30.6668 36.2667C30.9143 36.2667 31.1517 36.1683 31.3267 35.9933C31.5018 35.8183 31.6001 35.5809 31.6001 35.3333C31.6001 35.0858 31.5018 34.8484 31.3267 34.6734C31.1517 34.4983 30.9143 34.4 30.6668 34.4C30.2328 34.406 29.8021 34.4752 29.3881 34.6053L29.1828 34.3907C28.6795 33.8872 28.303 33.2714 28.0843 32.594C27.8656 31.9165 27.8109 31.1968 27.9248 30.4942C28.0388 29.7915 28.318 29.1259 28.7395 28.5522C29.1611 27.9786 29.7128 27.5133 30.3494 27.1947L35.6508 24.544C36.1165 24.3129 36.5084 23.9563 36.7821 23.5143C37.0559 23.0723 37.2007 22.5626 37.2001 22.0427V21.3333H44.6668V22.0427C44.6662 22.5626 44.8109 23.0723 45.0847 23.5143C45.3585 23.9563 45.7504 24.3129 46.2161 24.544L51.5174 27.1947C52.154 27.5133 52.7058 27.9786 53.1273 28.5522C53.5488 29.1259 53.8281 29.7915 53.942 30.4942C54.0559 31.1968 54.0013 31.9165 53.7826 32.594C53.5639 33.2714 53.1874 33.8872 52.6841 34.3907L52.4788 34.6053C52.0648 34.4752 51.634 34.406 51.2001 34.4C50.9526 34.4 50.7152 34.4983 50.5401 34.6734C50.3651 34.8484 50.2668 35.0858 50.2668 35.3333C50.2668 35.5809 50.3651 35.8183 50.5401 35.9933C50.7152 36.1683 50.9526 36.2667 51.2001 36.2667Z" fill="black"/>
</svg>
