<svg width="104" height="104" viewBox="0 0 104 104" fill="none" xmlns="http://www.w3.org/2000/svg">
<g clip-path="url(#clip0_1330_11264)">
<path d="M52.1995 66.704C74.6729 66.704 92.8911 59.992 92.8911 51.7124C92.8911 43.4327 74.6729 36.7207 52.1995 36.7207C29.7261 36.7207 11.5078 43.4327 11.5078 51.7124C11.5078 59.992 29.7261 66.704 52.1995 66.704Z" fill="#64B5F6"/>
<path d="M52.1998 59.7865C80.5872 59.7865 103.6 54.623 103.6 48.2536C103.6 41.8841 80.5872 36.7207 52.1998 36.7207C23.8124 36.7207 0.799805 41.8841 0.799805 48.2536C0.799805 54.623 23.8124 59.7865 52.1998 59.7865Z" fill="#BBDEFB"/>
<path d="M52.1993 45.2872C73.0656 45.2872 83.3456 49.3735 84.3243 51.7122C84.5171 52.1706 84.6071 52.359 84.6927 52.843C86.0784 52.5775 87.3505 52.3012 88.5456 52.0185C88.5606 51.9136 88.6077 51.8215 88.6077 51.7122C88.6077 43.711 67.3645 41.2716 54.3967 41.0275C53.6621 41.0189 52.9511 41.0039 52.1993 41.0039C51.4476 41.0039 50.7366 41.0189 50.002 41.0275C37.0342 41.2716 15.791 43.711 15.791 51.7122C15.791 51.8215 15.8381 51.9136 15.8531 52.0185C17.0482 52.3012 18.3203 52.5775 19.706 52.843C19.7938 52.3804 19.8345 51.86 20.235 51.2882C21.672 49.2365 32.7744 45.2872 52.1993 45.2872Z" fill="#90CAF9"/>
</g>
<defs>
<clipPath id="clip0_1330_11264">
<rect width="102.8" height="102.8" fill="white" transform="translate(0.799805 0.3125)"/>
</clipPath>
</defs>
</svg>
